<?xml version="1.0" encoding="UTF-8"?>
<svg id="Calque_2" data-name="Calque 2" xmlns="http://www.w3.org/2000/svg" viewBox="0 0 243.97 311.45">
  <defs>
    <style>
      .cls-1, .cls-2 {
        fill: #353534;
      }

      .cls-2 {
        stroke: #353534;
        stroke-miterlimit: 10;
      }
    </style>
  </defs>
  <g id="Calque_1-2" data-name="Calque 1">
    <g>
      <path class="cls-1" d="M122.33,0C55.15,0,.68,54.46.68,121.64s54.46,121.64,121.64,121.64,121.64-54.46,121.64-121.64S189.51,0,122.33,0ZM163.07,74.65c.64,1.31,1.3,2.65,1.99,4.04-.31-.04-.68-.1-1.11-.16-1.65-.26-2.92-.39-3.86-.39-6.15,0-11.64,1.45-16.26,4.27-3.19,1.86-5.54,4.15-7.05,6.84-.28-.38-.55-.75-.81-1.11-.02-.26-.06-.53-.06-.79,0-4.26,1.95-7.38,6.17-9.85,3.72-2.27,8.15-3.42,13.18-3.42.43,0,1.28.05,2.93.31,1.67.26,2.83.39,3.63.39.44,0,.85-.05,1.25-.13ZM157.42,62.91c.21.43.42.87.64,1.31.66,1.4,1.35,2.87,2.09,4.41-.29-.04-.63-.09-1.02-.15-1.65-.26-2.92-.39-3.86-.39-6.15,0-11.64,1.45-16.26,4.27-3.54,2.07-6.05,4.67-7.52,7.75-.6-1.65-.93-3.18-.93-4.55,0-4.26,1.95-7.38,6.17-9.85,3.72-2.27,8.15-3.42,13.18-3.42.43,0,1.28.05,2.93.31,1.67.26,2.83.39,3.63.39.33,0,.65-.03.95-.08ZM96.1,195.31c-.7-.58-2.74-2.78-7.44-10.75-.49-.84-1.02-1.74-1.57-2.71-.27-.47-.53-.93-.81-1.43-.25-.44-.48-.86-.72-1.28-.91-1.63-1.72-3.12-2.44-4.46-.53-.99-1.01-1.9-1.44-2.74-.52-1-.97-1.91-1.37-2.73-1.64-3.37-2.36-5.26-2.67-6.29,11.2-2.57,18.5-4.73,22.34-6.61,6.05-3.02,10.12-7.09,12.2-12.12.11-.27.23-.54.33-.82.31-.84.56-1.71.75-2.61.17-.79.3-1.59.39-2.42.06-.52.1-1.05.12-1.59.02-.38.04-.76.04-1.15,0-1.06-.1-2.12-.28-3.2-.84-4.91-3.61-10.08-8.41-15.73-5.85-6.74-9.41-10.89-11.57-13.46-2.24-2.66-2.98-3.6-3.18-3.91-.1-.16-.19-.32-.29-.48-.05-.08-.1-.17-.16-.25-1.07-1.68-2.04-3.39-2.87-5.15-.69-1.47-1.27-2.97-1.79-4.5-1.26-3.67-2.06-7.49-2.34-11.46-.08-1.13-.12-2.27-.12-3.41,0-13.38,6.06-24.22,18.54-33.15,10.31-7.47,23.18-12.4,38.27-14.66.5-.04.91-.07,1.24-.09.1.15.23.4.39.81.52,1.46,1.22,3.23,2.09,5.28.38.89.78,1.83,1.22,2.83.4.92.84,1.89,1.3,2.9.62,1.38,1.29,2.83,2.02,4.37.33.71.67,1.43,1.03,2.18.1.21.2.42.3.63.44.93.9,1.89,1.38,2.87.9,1.88,1.86,3.85,2.88,5.92.47.96.95,1.93,1.45,2.93-.06,0-.13-.02-.2-.03-.07,0-.14-.02-.22-.03-.21-.03-.44-.06-.7-.11-1.65-.26-2.92-.39-3.86-.39-6.15,0-11.64,1.45-16.26,4.27-6.03,3.53-9.09,8.57-9.09,14.99,0,4.35,1.86,9.23,5.64,14.8,1.01,1.49,2.15,3.03,3.44,4.62.37.47.75.94,1.13,1.42,1.1,1.39,2.25,2.83,3.39,4.27.09.11.17.22.26.32,5.05,6.37,9.97,12.58,10.68,13.5.17.26.31.53.47.79,2.13,3.42,3.79,6.84,4.99,10.25.24.67.45,1.34.65,2.01.51,1.72.92,3.44,1.19,5.15.3,1.91.46,3.82.46,5.71,0,15.05-6.2,27.63-18.96,38.45-11.22,9.58-25.1,15.77-41.14,18.38-.27.03-.49.05-.66.07ZM101.34,206.99c-.53-.44-1.82-1.81-4.41-5.88.19-.02.38-.04.6-.07,17.26-2.73,32.16-9.32,44.26-19.56,11.4-9.58,18.26-20.91,20.47-33.76.06.88.1,1.75.1,2.63-.07,15.05-6.32,27.6-19.13,38.37-11.26,9.53-25.17,15.66-41.22,18.2-.27.03-.49.05-.66.07ZM148.08,198.7c-11.22,9.58-25.1,15.77-41.14,18.38-.27.03-.49.06-.66.07-.45-.37-1.45-1.41-3.34-4.19,0,0,.01,0,.02,0,17.25-2.81,32.12-9.46,44.18-19.75,10.67-9.04,17.31-19.62,19.86-31.53-.39,14.42-6.57,26.54-18.93,37.01Z"/>
      <g>
        <g>
          <path class="cls-2" d="M12.91,268.56c5.03,0,7.94,1.64,10.58,3.97l-.31.38c-2.64-2.4-5.55-3.88-10.27-3.88-6.23,0-10.29,3.83-10.29,8.8,0,5.27,2.59,7.38,10.71,9.94,7.87,2.48,11.53,5,11.53,11.68s-4.94,11.37-12.24,11.37c-5.52,0-8.9-1.9-11.94-4.78l.31-.37c2.96,2.81,6.16,4.67,11.62,4.67,7.01,0,11.75-4.42,11.75-10.89s-3.5-8.79-11.21-11.25c-8.3-2.64-11.02-4.89-11.02-10.39s4.28-9.27,10.79-9.27h0Z"/>
          <path class="cls-2" d="M48.69,309.11c-1.56.94-3.28,1.72-5.81,1.72-4,0-6.39-2.63-6.39-7.45v-23.94h-5.23v-.44h5.23v-8.04l.48-.04v8.08h8.78l-.06.44h-8.72v23.91c0,4.47,2.13,7.02,5.93,7.02,2.43,0,4.12-.75,5.55-1.65l.23.39h0Z"/>
          <path class="cls-2" d="M73.16,303.62c0,4.35.66,6.06,3.08,6.83l-.14.37c-2.55-.82-3.36-2.51-3.38-6.62-2.15,4.29-5.37,6.62-10.37,6.62-5.89,0-9.17-3.88-9.17-9.3,0-6.18,4.67-9.7,12.1-9.7h7.39v-3.99c0-5.6-2.12-8.98-8.28-8.98-2.78,0-5.56.68-8.82,2.03l-.16-.43c3.28-1.36,6.12-2.05,8.98-2.05,6.39,0,8.76,3.5,8.76,9.4v15.83h0ZM62.36,310.37c5.15,0,8.18-2.47,10.32-6.84v-11.24h-7.31c-7.23,0-11.67,3.33-11.67,9.24,0,5.21,3.1,8.85,8.66,8.85h0Z"/>
          <path class="cls-2" d="M105.66,281.41l-.32.32c-2.08-1.93-4.44-2.88-7.52-2.88-7.25,0-11.86,5.87-11.86,15.94s4.98,15.58,11.75,15.58c3.47,0,5.89-1.23,7.9-3.09l.31.33c-2.04,1.9-4.55,3.21-8.19,3.21-7.13,0-12.29-5.76-12.29-16.03s4.72-16.4,12.36-16.4c3.24,0,5.66,1,7.85,3.02Z"/>
          <path class="cls-2" d="M116.44,310.27v-44.15l.48-.05v44.2h-.48ZM134.97,310.27h-.62l-17.07-17.11,15.46-14.16h.63l-15.46,14.15,17.05,17.12Z"/>
        </g>
        <g>
          <path class="cls-1" d="M185.07,295.15c0,10.3-8.35,13.17-19.7,13.17h-14.54v-45.19h12.78c12.13,0,19.56,3.06,19.56,11.54,0,5.74-4.11,8.74-8.28,9.72,5.02.98,10.17,3.46,10.17,10.76ZM161.53,270.69v10.5h3.98c4.43,0,6.78-1.7,6.78-5.48s-2.48-5.02-7.63-5.02h-3.13ZM174.05,294.56c0-4.57-3.2-6.26-7.83-6.26h-4.7v12.26h3.91c5.02,0,8.61-1.04,8.61-6Z"/>
          <path class="cls-1" d="M202.03,261.3c0,3.33-2.48,5.87-6.13,5.87s-6.06-2.54-6.06-5.87,2.54-5.87,6.06-5.87,6.13,2.54,6.13,5.87ZM201.12,308.32h-10.3v-34.63h10.3v34.63Z"/>
          <path class="cls-1" d="M208.62,299.52v-39.59l10.3-1.11v40.3c0,1.43.59,2.15,1.83,2.15.65,0,1.24-.13,1.7-.33l1.96,7.3c-1.5.65-3.72,1.17-6.26,1.17-6,0-9.52-3.59-9.52-9.91Z"/>
          <path class="cls-1" d="M228.19,299.52v-39.59l10.3-1.11v40.3c0,1.43.59,2.15,1.83,2.15.65,0,1.24-.13,1.7-.33l1.96,7.3c-1.5.65-3.72,1.17-6.26,1.17-6,0-9.52-3.59-9.52-9.91Z"/>
        </g>
      </g>
    </g>
  </g>
</svg>